<svg height="1886" width="720" xmlns="http://www.w3.org/2000/svg">
<rect height="1886" fill="#555" width="720"></rect>
<text fill="#7f7" font-family="Courier New" font-size="12" xml:space="preserve">
<tspan x="10" y="26"></tspan>
<tspan x="10" y="42">&gt; npmdoc-react-redux@0.0.1 test /home/travis/build/npmdoc/node-npmdoc-react-redux</tspan>
<tspan x="10" y="58">&gt; (set -e; export PORT=$(utility2 shServerPortRandom); utility2 test test.js)</tspan>
<tspan x="10" y="74"></tspan>
<tspan x="10" y="90"></tspan>
<tspan x="10" y="106">[MODE_BUILD=npmTest] - 2017-04-07T19:17:11Z - npm-testing /home/travis/build/npmdoc/node-npmdoc-\</tspan>
<tspan x="10" y="122">react-redux</tspan>
<tspan x="10" y="138"></tspan>
<tspan x="10" y="154"></tspan>
<tspan x="10" y="170">covering $ /home/travis/.nvm/versions/node/v6.10.2/bin/node /home/travis/build/npmdoc/node-npmdo\</tspan>
<tspan x="10" y="186">c-react-redux/test.js</tspan>
<tspan x="10" y="202">merging file:///home/travis/build/npmdoc/node-npmdoc-react-redux/tmp/build/test-report.json to t\</tspan>
<tspan x="10" y="218">est-report</tspan>
<tspan x="10" y="234">&gt; server listening on http-port 44227</tspan>
<tspan x="10" y="250">created apidoc file:///home/travis/build/npmdoc/node-npmdoc-react-redux/tmp/build/apidoc.html</tspan>
<tspan x="10" y="266"></tspan>
<tspan x="10" y="282"></tspan>
<tspan x="10" y="298">browserTest - created electron entry-page /home/travis/build/npmdoc/node-npmdoc-react-redux/tmp/\</tspan>
<tspan x="10" y="314">electron.15b49d9599c0.c5183bb6738de.html</tspan>
<tspan x="10" y="330"></tspan>
<tspan x="10" y="346">[node test-case 1 of 6 passed] - testCase_buildLib_default</tspan>
<tspan x="10" y="362">[node test-case 2 of 6 passed] - testCase_buildReadme_default</tspan>
<tspan x="10" y="378">[node test-case 3 of 6 passed] - testCase_buildTest_default</tspan>
<tspan x="10" y="394"></tspan>
<tspan x="10" y="410">browserTest - created electron entry-page /home/travis/build/npmdoc/node-npmdoc-react-redux/tmp/\</tspan>
<tspan x="10" y="426">electron.15b49d959f60.57289749ab94c.html</tspan>
<tspan x="10" y="442"></tspan>
<tspan x="10" y="458">Xlib:  extension "RANDR" missing on display ":99.0".</tspan>
<tspan x="10" y="474">Xlib:  extension "RANDR" missing on display ":99.0".</tspan>
<tspan x="10" y="490">merging file:///home/travis/build/npmdoc/node-npmdoc-react-redux/tmp/build/test-report.json to t\</tspan>
<tspan x="10" y="506">est-report</tspan>
<tspan x="10" y="522">Xlib:  extension "RANDR" missing on display ":99.0".</tspan>
<tspan x="10" y="538">[4827:0407/191713:WARNING:audio_manager.cc(314)] Multiple instances of AudioManager detected</tspan>
<tspan x="10" y="554">[4827:0407/191713:WARNING:audio_manager.cc(275)] Multiple instances of AudioManager detected</tspan>
<tspan x="10" y="570">[4864:0407/191713:ERROR:sandbox_linux.cc(343)] InitializeSandbox() called with multiple threads \</tspan>
<tspan x="10" y="586">in process gpu-process. </tspan>
<tspan x="10" y="602">&gt; server listening on http-port 63788</tspan>
<tspan x="10" y="618">[4827:0407/191713:ERROR:browser_gpu_channel_host_factory.cc(131)] Failed to create channel.</tspan>
<tspan x="10" y="634">merging file:///home/travis/build/npmdoc/node-npmdoc-react-redux/tmp/build/test-report.json to t\</tspan>
<tspan x="10" y="650">est-report</tspan>
<tspan x="10" y="666"></tspan>
<tspan x="10" y="682">browserTest - opened url /home/travis/build/npmdoc/node-npmdoc-react-redux/tmp/build/apidoc.html</tspan>
<tspan x="10" y="698"></tspan>
<tspan x="10" y="714">Xlib:  extension "RANDR" missing on display ":99.0".</tspan>
<tspan x="10" y="730">[4840:0407/191714:WARNING:audio_manager.cc(314)] Multiple instances of AudioManager detected</tspan>
<tspan x="10" y="746">[4840:0407/191714:WARNING:audio_manager.cc(275)] Multiple instances of AudioManager detected</tspan>
<tspan x="10" y="762">[4907:0407/191714:ERROR:sandbox_linux.cc(343)] InitializeSandbox() called with multiple threads \</tspan>
<tspan x="10" y="778">in process gpu-process. </tspan>
<tspan x="10" y="794"></tspan>
<tspan x="10" y="810">browserTest - opened url http://127.0.0.1:44227?modeTest=1</tspan>
<tspan x="10" y="826"></tspan>
<tspan x="10" y="842">[4840:0407/191716:INFO:CONSOLE(249)] "----------|-----------|-----------|-----------|-----------\</tspan>
<tspan x="10" y="858">|</tspan>
<tspan x="10" y="874">File      |   % Stmts |% Branches |   % Funcs |   % Lines |</tspan>
<tspan x="10" y="890">----------|-----------|-----------|-----------|-----------|</tspan>
<tspan x="10" y="906">----------|-----------|-----------|-----------|-----------|</tspan>
<tspan x="10" y="922">All files |       100 |       100 |       100 |       100 |</tspan>
<tspan x="10" y="938">----------|-----------|-----------|-----------|-----------|</tspan>
<tspan x="10" y="954">", source: file:///home/travis/build/npmdoc/node-npmdoc-react-redux/tmp/electron.15b49d959f60.57\</tspan>
<tspan x="10" y="970">289749ab94c.html (249)</tspan>
<tspan x="10" y="986">[4840:0407/191716:INFO:CONSOLE(249)] "created coverage file:///tmp/build/coverage.html/index.htm\</tspan>
<tspan x="10" y="1002">l", source: file:///home/travis/build/npmdoc/node-npmdoc-react-redux/tmp/electron.15b49d959f60.5\</tspan>
<tspan x="10" y="1018">7289749ab94c.html (249)</tspan>
<tspan x="10" y="1034">[node test-case 4 of 6 passed] - testCase_buildApp_default</tspan>
<tspan x="10" y="1050"></tspan>
<tspan x="10" y="1066">browserTest - exit-code 1 - /home/travis/build/npmdoc/node-npmdoc-react-redux/tmp/build/apidoc.h\</tspan>
<tspan x="10" y="1082">tml</tspan>
<tspan x="10" y="1098"></tspan>
<tspan x="10" y="1114">[node test-case 5 of 6 passed] - testCase_buildApidoc_default</tspan>
<tspan x="10" y="1130"></tspan>
<tspan x="10" y="1146">browserTest - created screenCapture file:///home/travis/build/npmdoc/node-npmdoc-react-redux/tmp\</tspan>
<tspan x="10" y="1162">/build/screenCapture.%2F.png</tspan>
<tspan x="10" y="1178"></tspan>
<tspan x="10" y="1194">browserTest - created screenCapture file:///home/travis/build/npmdoc/node-npmdoc-react-redux/tmp\</tspan>
<tspan x="10" y="1210">/build/screenCapture.%2F.html</tspan>
<tspan x="10" y="1226"></tspan>
<tspan x="10" y="1242">browserTest - exit-code 0 - http://127.0.0.1:44227?modeTest=1</tspan>
<tspan x="10" y="1258"></tspan>
<tspan x="10" y="1274"></tspan>
<tspan x="10" y="1290">browserTest - merged coverage from /home/travis/build/npmdoc/node-npmdoc-react-redux/tmp/coverag\</tspan>
<tspan x="10" y="1306">e.%2F.json</tspan>
<tspan x="10" y="1322"></tspan>
<tspan x="10" y="1338"></tspan>
<tspan x="10" y="1354">browserTest - merging test-report from /home/travis/build/npmdoc/node-npmdoc-react-redux/tmp/tes\</tspan>
<tspan x="10" y="1370">t-report.%2F.json</tspan>
<tspan x="10" y="1386"></tspan>
<tspan x="10" y="1402">[node test-case 6 of 6 passed] - testCase_webpage_default</tspan>
<tspan x="10" y="1418">--------------------------------|-----------|-----------|-----------|-----------|</tspan>
<tspan x="10" y="1434">File                            |   % Stmts |% Branches |   % Funcs |   % Lines |</tspan>
<tspan x="10" y="1450">--------------------------------|-----------|-----------|-----------|-----------|</tspan>
<tspan x="10" y="1466">   node-npmdoc-react-redux/     |       100 |       100 |       100 |       100 |</tspan>
<tspan x="10" y="1482">      example.js                |       100 |       100 |       100 |       100 |</tspan>
<tspan x="10" y="1498">      lib.npmdoc_react_redux.js |       100 |       100 |       100 |       100 |</tspan>
<tspan x="10" y="1514">      test.js                   |       100 |       100 |       100 |       100 |</tspan>
<tspan x="10" y="1530">--------------------------------|-----------|-----------|-----------|-----------|</tspan>
<tspan x="10" y="1546">All files                       |       100 |       100 |       100 |       100 |</tspan>
<tspan x="10" y="1562">--------------------------------|-----------|-----------|-----------|-----------|</tspan>
<tspan x="10" y="1578"></tspan>
<tspan x="10" y="1594">created coverage file:///home/travis/build/npmdoc/node-npmdoc-react-redux/tmp/build/coverage.htm\</tspan>
<tspan x="10" y="1610">l/index.html</tspan>
<tspan x="10" y="1626">merging file:///home/travis/build/npmdoc/node-npmdoc-react-redux/tmp/build/test-report.json to t\</tspan>
<tspan x="10" y="1642">est-report</tspan>
<tspan x="10" y="1658"></tspan>
<tspan x="10" y="1674">-------------------------------------------------------</tspan>
<tspan x="10" y="1690">| test-report - buildNpmdoc - node - linux v6.10.2 - 2017-04-07T19:16:50.334Z</tspan>
<tspan x="10" y="1706">|   37081 ms            0 failed        6 passed      |</tspan>
<tspan x="10" y="1722">-------------------------------------------------------</tspan>
<tspan x="10" y="1738"></tspan>
<tspan x="10" y="1754">created test-report file:///home/travis/build/npmdoc/node-npmdoc-react-redux/tmp/build/test-repo\</tspan>
<tspan x="10" y="1770">rt.html</tspan>
<tspan x="10" y="1786"></tspan>
<tspan x="10" y="1802"></tspan>
<tspan x="10" y="1818">npmTest - 0 failed tests</tspan>
<tspan x="10" y="1834"></tspan>
<tspan x="10" y="1850"></tspan>
<tspan x="10" y="1866">[MODE_BUILD=npmTest] - 2017-04-07T19:17:31Z - EXIT_CODE - 0</tspan>
</text>
</svg>
