<svg height="1950" width="720" xmlns="http://www.w3.org/2000/svg">
<rect height="1950" fill="#555" width="720"></rect>
<text fill="#7f7" font-family="Courier New" font-size="12" xml:space="preserve">
<tspan x="10" y="26"></tspan>
<tspan x="10" y="42">&gt; npmdoc-react-redux@0.0.1 test /home/travis/build/npmdoc/node-npmdoc-react-redux</tspan>
<tspan x="10" y="58">&gt; (set -e; export PORT=$(utility2 shServerPortRandom); utility2 test test.js)</tspan>
<tspan x="10" y="74"></tspan>
<tspan x="10" y="90"></tspan>
<tspan x="10" y="106">[MODE_BUILD=npmTest] - 2017-03-30T15:28:38Z - npm-testing /home/travis/build/npmdoc/node-npmdoc-\</tspan>
<tspan x="10" y="122">react-redux</tspan>
<tspan x="10" y="138"></tspan>
<tspan x="10" y="154"></tspan>
<tspan x="10" y="170">covering $ /home/travis/.nvm/versions/node/v6.10.1/bin/node /home/travis/build/npmdoc/node-npmdo\</tspan>
<tspan x="10" y="186">c-react-redux/test.js</tspan>
<tspan x="10" y="202">merging file:///home/travis/build/npmdoc/node-npmdoc-react-redux/tmp/build/test-report.json to t\</tspan>
<tspan x="10" y="218">est-report</tspan>
<tspan x="10" y="234">&gt; server listening on http-port 63344</tspan>
<tspan x="10" y="250">created apidoc file:///home/travis/build/npmdoc/node-npmdoc-react-redux/tmp/build/apidoc.html</tspan>
<tspan x="10" y="266"></tspan>
<tspan x="10" y="282"></tspan>
<tspan x="10" y="298">browserTest - created electron entry-page /home/travis/build/npmdoc/node-npmdoc-react-redux/tmp/\</tspan>
<tspan x="10" y="314">electron.15b1fd53ac40.5ec64bba5d75e.html</tspan>
<tspan x="10" y="330"></tspan>
<tspan x="10" y="346">[node test-case 1 of 6 passed] - testCase_buildLib_default</tspan>
<tspan x="10" y="362">[node test-case 2 of 6 passed] - testCase_buildReadme_default</tspan>
<tspan x="10" y="378">[node test-case 3 of 6 passed] - testCase_buildTest_default</tspan>
<tspan x="10" y="394"></tspan>
<tspan x="10" y="410">browserTest - created electron entry-page /home/travis/build/npmdoc/node-npmdoc-react-redux/tmp/\</tspan>
<tspan x="10" y="426">electron.15b1fd53b0a0.43b630c446bc3.html</tspan>
<tspan x="10" y="442"></tspan>
<tspan x="10" y="458">Xlib:  extension "RANDR" missing on display ":99.0".</tspan>
<tspan x="10" y="474">Xlib:  extension "RANDR" missing on display ":99.0".</tspan>
<tspan x="10" y="490">&gt; server listening on http-port 59781</tspan>
<tspan x="10" y="506">merging file:///home/travis/build/npmdoc/node-npmdoc-react-redux/tmp/build/test-report.json to t\</tspan>
<tspan x="10" y="522">est-report</tspan>
<tspan x="10" y="538">Xlib:  extension "RANDR" missing on display ":99.0".</tspan>
<tspan x="10" y="554">[4834:0330/152840:WARNING:audio_manager.cc(314)] Multiple instances of AudioManager detected</tspan>
<tspan x="10" y="570">[4834:0330/152840:WARNING:audio_manager.cc(275)] Multiple instances of AudioManager detected</tspan>
<tspan x="10" y="586">[4869:0330/152840:ERROR:sandbox_linux.cc(343)] InitializeSandbox() called with multiple threads \</tspan>
<tspan x="10" y="602">in process gpu-process. </tspan>
<tspan x="10" y="618">[4834:0330/152840:ERROR:browser_gpu_channel_host_factory.cc(131)] Failed to create channel.</tspan>
<tspan x="10" y="634">merging file:///home/travis/build/npmdoc/node-npmdoc-react-redux/tmp/build/test-report.json to t\</tspan>
<tspan x="10" y="650">est-report</tspan>
<tspan x="10" y="666">Xlib:  extension "RANDR" missing on display ":99.0".</tspan>
<tspan x="10" y="682">[4838:0330/152840:WARNING:audio_manager.cc(314)] Multiple instances of AudioManager detected</tspan>
<tspan x="10" y="698">[4838:0330/152840:WARNING:audio_manager.cc(275)] Multiple instances of AudioManager detected</tspan>
<tspan x="10" y="714">[4899:0330/152841:ERROR:sandbox_linux.cc(343)] InitializeSandbox() called with multiple threads \</tspan>
<tspan x="10" y="730">in process gpu-process. </tspan>
<tspan x="10" y="746">[4838:0330/152841:ERROR:browser_gpu_channel_host_factory.cc(131)] Failed to create channel.</tspan>
<tspan x="10" y="762"></tspan>
<tspan x="10" y="778">browserTest - opened url /home/travis/build/npmdoc/node-npmdoc-react-redux/tmp/build/apidoc.html</tspan>
<tspan x="10" y="794"></tspan>
<tspan x="10" y="810"></tspan>
<tspan x="10" y="826">browserTest - opened url http://127.0.0.1:63344?modeTest=1</tspan>
<tspan x="10" y="842"></tspan>
<tspan x="10" y="858">[4838:0330/152842:INFO:CONSOLE(206)] "----------|-----------|-----------|-----------|-----------\</tspan>
<tspan x="10" y="874">|</tspan>
<tspan x="10" y="890">File      |   % Stmts |% Branches |   % Funcs |   % Lines |</tspan>
<tspan x="10" y="906">----------|-----------|-----------|-----------|-----------|</tspan>
<tspan x="10" y="922">----------|-----------|-----------|-----------|-----------|</tspan>
<tspan x="10" y="938">All files |       100 |       100 |       100 |       100 |</tspan>
<tspan x="10" y="954">----------|-----------|-----------|-----------|-----------|</tspan>
<tspan x="10" y="970">", source: file:///home/travis/build/npmdoc/node-npmdoc-react-redux/tmp/electron.15b1fd53b0a0.43\</tspan>
<tspan x="10" y="986">b630c446bc3.html (206)</tspan>
<tspan x="10" y="1002">[4838:0330/152842:INFO:CONSOLE(206)] "created coverage file:///tmp/build/coverage.html/index.htm\</tspan>
<tspan x="10" y="1018">l", source: file:///home/travis/build/npmdoc/node-npmdoc-react-redux/tmp/electron.15b1fd53b0a0.4\</tspan>
<tspan x="10" y="1034">3b630c446bc3.html (206)</tspan>
<tspan x="10" y="1050">[node test-case 4 of 6 passed] - testCase_buildApp_default</tspan>
<tspan x="10" y="1066"></tspan>
<tspan x="10" y="1082">browserTest - created screen-capture file:///home/travis/build/npmdoc/node-npmdoc-react-redux/tm\</tspan>
<tspan x="10" y="1098">p/build/screen-capture.npmTest.browser._2Fhome_2Ftravis_2Fbuild_2Fnpmdoc_2Fnode-npmdoc-react-red\</tspan>
<tspan x="10" y="1114">ux_2Ftmp_2Fbuild_2Fapidoc.html.png</tspan>
<tspan x="10" y="1130"></tspan>
<tspan x="10" y="1146"></tspan>
<tspan x="10" y="1162">browserTest - exit-code 0 - /home/travis/build/npmdoc/node-npmdoc-react-redux/tmp/build/apidoc.h\</tspan>
<tspan x="10" y="1178">tml</tspan>
<tspan x="10" y="1194"></tspan>
<tspan x="10" y="1210">[node test-case 5 of 6 passed] - testCase_buildApidoc_default</tspan>
<tspan x="10" y="1226"></tspan>
<tspan x="10" y="1242">browserTest - created screen-capture file:///home/travis/build/npmdoc/node-npmdoc-react-redux/tm\</tspan>
<tspan x="10" y="1258">p/build/screen-capture.npmTest.browser..png</tspan>
<tspan x="10" y="1274"></tspan>
<tspan x="10" y="1290"></tspan>
<tspan x="10" y="1306">browserTest - exit-code 0 - http://127.0.0.1:63344?modeTest=1</tspan>
<tspan x="10" y="1322"></tspan>
<tspan x="10" y="1338"></tspan>
<tspan x="10" y="1354">browserTest - merged coverage from /home/travis/build/npmdoc/node-npmdoc-react-redux/tmp/coverag\</tspan>
<tspan x="10" y="1370">e.npmTest.browser.%2F.json</tspan>
<tspan x="10" y="1386"></tspan>
<tspan x="10" y="1402"></tspan>
<tspan x="10" y="1418">browserTest - merging test-report from /home/travis/build/npmdoc/node-npmdoc-react-redux/tmp/tes\</tspan>
<tspan x="10" y="1434">t-report.npmTest.browser.%2F.json</tspan>
<tspan x="10" y="1450"></tspan>
<tspan x="10" y="1466">[node test-case 6 of 6 passed] - testCase_webpage_default</tspan>
<tspan x="10" y="1482">--------------------------------|-----------|-----------|-----------|-----------|</tspan>
<tspan x="10" y="1498">File                            |   % Stmts |% Branches |   % Funcs |   % Lines |</tspan>
<tspan x="10" y="1514">--------------------------------|-----------|-----------|-----------|-----------|</tspan>
<tspan x="10" y="1530">   node-npmdoc-react-redux/     |       100 |       100 |       100 |       100 |</tspan>
<tspan x="10" y="1546">      example.js                |       100 |       100 |       100 |       100 |</tspan>
<tspan x="10" y="1562">      lib.npmdoc_react_redux.js |       100 |       100 |       100 |       100 |</tspan>
<tspan x="10" y="1578">      test.js                   |       100 |       100 |       100 |       100 |</tspan>
<tspan x="10" y="1594">--------------------------------|-----------|-----------|-----------|-----------|</tspan>
<tspan x="10" y="1610">All files                       |       100 |       100 |       100 |       100 |</tspan>
<tspan x="10" y="1626">--------------------------------|-----------|-----------|-----------|-----------|</tspan>
<tspan x="10" y="1642"></tspan>
<tspan x="10" y="1658">created coverage file:///home/travis/build/npmdoc/node-npmdoc-react-redux/tmp/build/coverage.htm\</tspan>
<tspan x="10" y="1674">l/index.html</tspan>
<tspan x="10" y="1690">merging file:///home/travis/build/npmdoc/node-npmdoc-react-redux/tmp/build/test-report.json to t\</tspan>
<tspan x="10" y="1706">est-report</tspan>
<tspan x="10" y="1722"></tspan>
<tspan x="10" y="1738">-------------------------------------------------------</tspan>
<tspan x="10" y="1754">| test-report - buildNpmdoc - node - linux v6.10.1 - 2017-03-30T15:28:27.686Z</tspan>
<tspan x="10" y="1770">|   17376 ms            0 failed        6 passed      |</tspan>
<tspan x="10" y="1786">-------------------------------------------------------</tspan>
<tspan x="10" y="1802"></tspan>
<tspan x="10" y="1818">created test-report file:///home/travis/build/npmdoc/node-npmdoc-react-redux/tmp/build/test-repo\</tspan>
<tspan x="10" y="1834">rt.html</tspan>
<tspan x="10" y="1850"></tspan>
<tspan x="10" y="1866"></tspan>
<tspan x="10" y="1882">npmTest - 0 failed tests</tspan>
<tspan x="10" y="1898"></tspan>
<tspan x="10" y="1914"></tspan>
<tspan x="10" y="1930">[MODE_BUILD=npmTest] - 2017-03-30T15:28:48Z - EXIT_CODE - 0</tspan>
</text>
</svg>
